<svg width="120" height="32" viewBox="0 0 120 32" fill="none" xmlns="http://www.w3.org/2000/svg">
  <rect width="120" height="32" rx="16" fill="#2563EB" />
  <path d="M18.945 22H14.655L9.09 10H13.59L16.8 17.385L20.01 10H24.45L18.945 22ZM29.575 10C31.845 10 33.585 10.675 34.795 12.025C36.005 13.375 36.61 15.31 36.61 17.83C36.61 20.33 36.005 22.255 34.795 23.605C33.585 24.955 31.845 25.63 29.575 25.63C27.325 25.63 25.6 24.955 24.4 23.605C23.2 22.255 22.6 20.33 22.6 17.83C22.6 15.31 23.2 13.375 24.4 12.025C25.6 10.675 27.325 10 29.575 10ZM29.575 13.67C28.685 13.67 27.99 14.04 27.49 14.78C26.99 15.52 26.74 16.55 26.74 17.87C26.74 19.19 26.99 20.215 27.49 20.945C27.99 21.675 28.685 22.04 29.575 22.04C30.465 22.04 31.16 21.675 31.66 20.945C32.16 20.215 32.41 19.19 32.41 17.87C32.41 16.55 32.16 15.52 31.66 14.78C31.16 14.04 30.465 13.67 29.575 13.67ZM47.52 10C49.79 10 51.53 10.675 52.74 12.025C53.95 13.375 54.555 15.31 54.555 17.83C54.555 20.33 53.95 22.255 52.74 23.605C51.53 24.955 49.79 25.63 47.52 25.63C45.27 25.63 43.545 24.955 42.345 23.605C41.145 22.255 40.545 20.33 40.545 17.83C40.545 15.31 41.145 13.375 42.345 12.025C43.545 10.675 45.27 10 47.52 10ZM47.52 13.67C46.63 13.67 45.935 14.04 45.435 14.78C44.935 15.52 44.685 16.55 44.685 17.87C44.685 19.19 44.935 20.215 45.435 20.945C45.935 21.675 46.63 22.04 47.52 22.04C48.41 22.04 49.105 21.675 49.605 20.945C50.105 20.215 50.355 19.19 50.355 17.87C50.355 16.55 50.105 15.52 49.605 14.78C49.105 14.04 48.41 13.67 47.52 13.67ZM62.06 22V10H66.18V12.81H66.27C66.61 12.03 67.12 11.415 67.8 10.965C68.48 10.515 69.275 10.29 70.185 10.29C71.615 10.29 72.68 10.72 73.38 11.58C74.08 12.44 74.43 13.665 74.43 15.255V22H70.35V15.78C70.35 14.94 70.155 14.28 69.765 13.8C69.375 13.32 68.79 13.08 68.01 13.08C67.19 13.08 66.55 13.37 66.09 13.95C65.63 14.53 65.4 15.305 65.4 16.275V22H61.32H62.06ZM86.545 22H82.285V8.84H86.545V22ZM104.685 22H100.635V19.15H100.545C99.825 20.49 98.625 21.16 96.945 21.16C95.355 21.16 94.125 20.59 93.255 19.45C92.385 18.31 91.95 16.855 91.95 15.085C91.95 13.315 92.385 11.86 93.255 10.72C94.125 9.58 95.355 9.01 96.945 9.01C98.505 9.01 99.685 9.62 100.485 10.84H100.575V3.5H104.685V22ZM98.305 17.77C99.195 17.77 99.87 17.475 100.33 16.885C100.79 16.295 101.02 15.46 101.02 14.38C101.02 13.32 100.79 12.5 100.33 11.92C99.87 11.34 99.195 11.05 98.305 11.05C97.435 11.05 96.765 11.345 96.295 11.935C95.825 12.525 95.59 13.35 95.59 14.41C95.59 15.47 95.825 16.29 96.295 16.87C96.765 17.45 97.435 17.74 98.305 17.74V17.77Z" fill="white" />
</svg>
